<?xml version="1.0" standalone="no"?>
<!DOCTYPE svg PUBLIC "-//W3C//DTD SVG 20010904//EN"
 "http://www.w3.org/TR/2001/REC-SVG-20010904/DTD/svg10.dtd">
<svg version="1.0" xmlns="http://www.w3.org/2000/svg"
 width="500.000000pt" height="500.000000pt" viewBox="0 0 500.000000 500.000000"
 preserveAspectRatio="xMidYMid meet">

<g transform="translate(0.000000,500.000000) scale(0.100000,-0.100000)"
fill="#000000" stroke="none">
<path d="M2780 4490 c0 -5 5 -10 10 -10 6 0 10 5 10 10 0 6 -4 10 -10 10 -5 0
-10 -4 -10 -10z"/>
<path d="M3140 4466 c0 -9 7 -16 16 -16 9 0 14 5 12 12 -6 18 -28 21 -28 4z"/>
<path d="M1908 4448 c9 -9 15 -9 24 0 9 9 7 12 -12 12 -19 0 -21 -3 -12 -12z"/>
<path d="M2170 4374 c0 -15 26 -19 34 -5 3 5 -3 11 -14 14 -13 3 -20 0 -20 -9z"/>
<path d="M2952 4364 c4 -21 22 -23 26 -1 2 10 -3 17 -13 17 -10 0 -15 -6 -13
-16z"/>
<path d="M2204 4284 c-4 -17 -19 -24 -67 -34 -167 -32 -411 -134 -572 -238
-77 -49 -227 -166 -263 -205 -16 -17 -30 -23 -44 -19 -17 4 -20 2 -15 -12 5
-13 -6 -33 -38 -69 -47 -51 -108 -132 -229 -300 -38 -53 -74 -93 -79 -90 -6 3
-7 1 -3 -5 3 -6 -7 -33 -24 -60 -34 -56 -130 -256 -130 -272 0 -5 7 -10 15
-10 8 0 15 5 15 11 0 14 107 239 114 239 2 0 -9 -36 -25 -80 -30 -84 -35 -110
-20 -110 4 0 23 40 40 89 40 111 105 246 124 258 8 4 20 25 26 46 7 21 28 50
47 65 19 15 34 32 34 37 0 18 74 85 93 85 10 0 22 11 27 25 10 26 88 90 203
167 66 45 72 47 89 31 16 -14 18 -14 18 0 0 8 -5 17 -12 19 -18 6 84 61 209
112 61 25 114 46 117 46 3 0 6 -11 6 -24 0 -14 5 -28 10 -31 10 -6 -120 -75
-140 -75 -4 0 -10 10 -13 21 -6 21 -7 21 -23 4 -17 -16 -17 -18 -1 -30 14 -10
11 -14 -26 -35 -109 -60 -233 -156 -355 -275 -73 -71 -140 -142 -148 -157 -10
-19 -21 -27 -37 -25 -18 2 -22 -3 -22 -25 -1 -30 -71 -148 -88 -148 -6 0 -8
-3 -5 -6 3 -3 -21 -61 -53 -129 -32 -67 -59 -130 -59 -139 0 -28 21 -17 32 17
20 56 116 239 164 312 25 39 43 61 39 50 -58 -175 -112 -435 -145 -700 -16
-127 -27 -184 -46 -225 -25 -54 -25 -55 -6 -70 17 -14 20 -36 26 -170 13 -277
29 -358 66 -335 8 5 10 24 6 59 l-6 51 40 -90 c37 -83 52 -130 30 -95 -13 20
-33 0 -24 -24 5 -12 14 -16 30 -13 19 3 29 -3 44 -28 11 -18 20 -40 20 -49 0
-9 4 -16 8 -16 4 0 39 -42 77 -92 134 -178 311 -341 479 -442 66 -40 68 -47 3
-15 -113 57 -269 163 -354 242 -32 29 -40 43 -31 48 10 7 10 11 0 21 -10 10
-14 10 -21 0 -6 -10 -22 1 -60 41 -28 30 -63 70 -77 88 -105 140 -144 201
-205 323 -62 125 -67 140 -52 151 21 16 10 45 -17 45 -11 0 -20 4 -20 9 0 5
-5 22 -10 37 -7 18 -14 24 -21 17 -21 -21 98 -300 194 -455 69 -110 250 -311
348 -387 15 -12 30 -32 33 -47 5 -19 12 -25 29 -22 14 1 46 -13 79 -35 31 -20
64 -40 73 -43 11 -5 15 -14 11 -30 -5 -18 0 -27 19 -40 24 -16 27 -16 44 0 17
16 23 14 90 -18 40 -19 124 -51 188 -72 64 -21 125 -46 135 -56 20 -20 44 -24
50 -8 3 11 148 -17 148 -29 0 -3 21 -6 48 -7 88 -1 241 -17 237 -24 -8 -13
-219 -19 -335 -9 -235 20 -416 71 -625 175 -271 134 -487 326 -659 584 -38 58
-54 90 -50 103 4 13 2 17 -5 13 -7 -5 -29 30 -61 96 -27 57 -50 105 -50 108 0
3 12 6 28 5 32 0 43 33 18 54 -21 18 -46 6 -47 -21 0 -15 -7 -6 -18 26 -9 28
-23 52 -31 54 -19 7 -8 -41 36 -152 212 -535 692 -935 1254 -1044 58 -12 125
-24 150 -27 66 -9 80 -15 80 -31 0 -21 17 -17 34 7 11 17 22 20 48 17 50 -8
262 11 363 32 50 10 158 33 240 51 83 17 159 32 170 32 11 1 22 4 25 8 3 4 46
23 95 42 433 167 781 499 959 915 39 90 42 102 26 102 -6 0 -18 -19 -27 -43
-81 -202 -213 -405 -359 -551 -124 -123 -294 -252 -320 -242 -22 8 -44 -4 -44
-24 0 -13 -28 -32 -102 -68 -89 -43 -266 -112 -286 -112 -4 0 40 25 98 56 117
62 254 159 408 288 56 47 111 86 122 86 14 0 20 7 20 23 0 25 105 154 122 149
33 -9 66 26 50 55 -6 10 10 46 52 116 34 56 77 138 96 182 19 44 42 88 50 98
8 10 15 30 16 45 0 15 4 40 9 56 6 22 5 28 -5 24 -8 -2 -24 -35 -36 -72 -30
-88 -85 -206 -95 -206 -5 0 -9 -7 -9 -16 0 -22 -69 -138 -139 -232 -77 -104
-96 -115 -31 -17 92 136 224 435 199 451 -13 8 -13 8 -33 -53 -10 -31 -24 -53
-32 -53 -9 0 -13 -9 -10 -30 8 -67 -157 -342 -305 -509 -65 -73 -80 -86 -103
-83 -23 3 -27 0 -22 -16 4 -12 -2 -26 -16 -39 -41 -36 -162 -113 -180 -113 -9
0 -21 -7 -25 -15 -10 -17 -134 -75 -162 -75 -11 0 -21 -4 -23 -9 -1 -4 -39
-20 -83 -34 -221 -73 -429 -98 -662 -79 -164 13 -226 26 -358 77 -287 111
-600 360 -767 612 -20 31 -34 61 -31 67 4 6 8 6 11 -2 7 -22 35 -14 29 8 -6
22 29 53 54 48 8 -2 13 2 12 8 -1 6 30 26 70 45 40 18 73 34 75 35 1 1 7 29
13 64 5 34 15 75 22 91 l12 29 52 -36 c30 -22 58 -34 67 -31 23 9 11 27 -50
75 l-54 43 17 31 c10 17 40 52 66 79 30 29 44 50 37 54 -11 7 -99 -77 -131
-125 l-15 -23 -77 73 c-46 43 -77 81 -77 92 0 14 -5 18 -16 14 -10 -4 -40 15
-84 52 -82 69 -85 79 -85 293 l0 147 47 69 c101 148 307 356 386 390 25 10 33
19 30 36 -2 12 -10 23 -19 25 -41 8 -261 -179 -360 -306 -70 -89 -68 -88 -64
-66 28 132 39 174 61 232 36 97 131 258 204 347 55 67 200 204 244 230 26 15
45 30 42 33 -10 9 -138 -82 -201 -142 -110 -108 -234 -279 -289 -398 -36 -77
-80 -229 -92 -313 -6 -46 -80 -202 -90 -192 -5 4 12 110 46 285 19 96 75 330
100 412 5 19 10 47 10 62 0 33 69 111 192 213 80 67 91 74 104 60 9 -8 20 -15
25 -15 15 0 10 30 -7 37 -11 4 8 21 68 60 288 189 612 283 973 283 170 0 337
-21 415 -53 14 -6 34 -12 45 -14 11 -2 73 -29 138 -60 78 -38 116 -61 113 -70
-4 -8 2 -12 17 -11 21 2 128 -64 209 -130 l38 -29 -38 -7 c-65 -10 -197 -7
-210 6 -17 17 -15 -1 3 -45 34 -82 45 -194 31 -332 -6 -57 -5 -59 8 -30 29 60
29 200 1 302 -3 10 25 -44 62 -119 38 -76 72 -138 76 -138 18 0 -48 152 -105
244 -53 87 -55 86 84 86 l121 0 41 -37 c22 -20 64 -63 91 -94 119 -136 121
-140 78 -163 -24 -12 -29 -12 -39 2 -16 21 -43 8 -57 -27 -6 -17 -24 -35 -41
-42 -19 -9 -32 -23 -34 -37 -4 -28 -13 -32 -165 -77 -128 -38 -231 -85 -240
-109 -9 -23 21 -43 41 -28 58 42 90 57 201 92 68 22 126 38 129 36 8 -9 -48
-95 -109 -169 -33 -40 -67 -80 -75 -90 -30 -37 -3 -30 37 9 53 50 124 149 149
207 11 26 25 49 30 52 6 4 9 -91 8 -252 l-2 -258 -65 -73 c-37 -41 -85 -85
-109 -99 l-44 -26 -21 22 c-18 17 -23 36 -25 99 -2 42 1 104 7 137 9 48 9 62
-3 73 -8 8 -19 11 -26 7 -16 -10 -40 -69 -40 -100 0 -24 -2 -25 -68 -25 -44 0
-75 -5 -89 -15 -22 -15 -22 -15 -25 51 -3 72 -18 91 -39 52 -9 -16 -13 -71
-14 -173 0 -143 1 -150 20 -150 16 0 21 9 28 54 4 30 17 73 30 95 22 40 23 41
82 44 l60 3 12 -72 c12 -79 34 -117 79 -135 49 -20 99 4 181 90 l71 74 4 -195
c3 -179 5 -196 22 -209 11 -8 23 -11 27 -7 4 5 10 190 13 413 3 223 9 425 14
450 l8 45 17 -56 c9 -30 24 -89 32 -129 9 -41 18 -76 20 -79 26 -26 3 114 -36
223 -16 44 -29 94 -29 112 0 28 4 33 31 39 24 5 39 1 69 -20 41 -28 113 -101
143 -144 9 -14 19 -22 23 -19 11 11 -53 94 -112 146 l-57 50 52 7 c57 8 86 -4
63 -27 -18 -18 -15 -28 9 -28 16 0 30 -22 70 -106 33 -71 53 -104 60 -97 12
12 -15 84 -71 192 -22 41 -38 76 -37 77 1 1 21 5 43 9 40 6 42 5 63 -31 15
-26 19 -40 12 -47 -18 -18 -12 -30 10 -24 18 5 27 -6 64 -86 23 -51 46 -102
50 -115 8 -27 31 -24 27 4 -2 10 -33 79 -69 152 -48 98 -63 136 -54 145 13 13
-13 47 -38 47 -9 0 -43 37 -76 83 -49 66 -286 317 -301 317 -6 0 -108 74 -115
83 -13 18 -278 151 -379 190 -30 11 -118 40 -195 63 l-140 41 3 30 c2 21 -2
32 -13 37 -24 9 -35 -1 -35 -31 0 -22 -3 -24 -26 -19 -15 4 -40 9 -58 12 -72
12 -74 13 -69 34 4 15 0 20 -16 20 -15 0 -21 -6 -21 -21 0 -18 -4 -20 -32 -13
-18 4 -97 7 -176 7 -128 0 -144 1 -152 18 -11 20 -40 15 -40 -7 0 -7 -10 -16
-22 -18 -72 -15 -101 -16 -114 -5 -11 9 -15 8 -20 -4 -3 -10 -29 -21 -62 -28
-104 -21 -293 -88 -401 -142 -118 -59 -191 -106 -321 -205 l-85 -65 70 72 c89
93 187 173 295 243 73 48 201 118 214 118 2 0 6 -10 9 -21 6 -21 6 -21 24 -4
13 13 14 20 5 23 -23 7 -12 20 34 38 43 16 47 16 56 1 14 -26 38 -20 44 11 5
25 13 30 67 45 66 17 77 16 57 -8 -19 -23 1 -39 26 -21 15 12 17 18 7 34 -10
17 -5 20 85 36 144 26 318 36 450 26 65 -5 125 -10 134 -10 9 0 24 -8 34 -17
20 -21 34 -23 52 -10 19 14 71 0 92 -25 15 -19 20 -20 33 -9 13 10 27 9 76 -5
34 -9 61 -21 61 -26 0 -5 -4 -7 -9 -3 -18 11 -23 -17 -7 -33 16 -16 18 -15 35
6 l17 23 82 -36 c163 -72 324 -175 462 -297 43 -37 51 -50 42 -61 -9 -10 -9
-16 0 -25 16 -16 38 -15 38 1 1 6 14 -4 31 -23 16 -19 27 -40 24 -47 -8 -22 6
-43 30 -43 21 0 62 -41 90 -90 8 -13 6 -13 -8 -1 -14 11 -18 11 -23 -3 -11
-30 3 -47 30 -37 22 9 27 4 75 -73 58 -95 118 -222 150 -318 21 -64 30 -76 44
-62 8 8 -46 157 -94 261 -75 164 -224 369 -365 503 -38 36 -67 68 -66 73 1 4
-3 7 -9 7 -6 0 -41 22 -78 49 -78 58 -205 137 -278 175 -37 18 -51 30 -47 41
4 9 0 15 -10 15 -9 0 -16 -4 -16 -9 0 -5 -49 9 -110 30 -140 49 -238 74 -371
93 -122 18 -346 21 -468 6 -75 -10 -84 -9 -97 7 -13 17 -14 17 -20 -3z m326
-194 c65 -7 65 -7 -32 -8 -53 -1 -118 -6 -145 -12 -26 -5 -96 -19 -155 -31
-60 -11 -147 -33 -195 -50 -48 -16 -88 -29 -90 -29 -2 0 -3 8 -3 18 0 10 -5
23 -11 29 -8 8 4 15 43 26 179 51 428 75 588 57z m1033 -347 c37 -25 67 -49
67 -54 0 -21 -36 -5 -98 44 -37 30 -86 66 -109 82 -24 15 -43 30 -43 32 0 7
104 -53 183 -104z m107 -105 c0 -21 0 -21 -22 -2 -13 10 -25 20 -27 21 -2 2 8
3 22 3 21 0 27 -5 27 -22z m215 -226 c-28 -14 -29 -14 -59 24 -17 21 -57 68
-90 104 -56 62 -58 65 -35 71 21 6 38 -7 118 -88 l95 -96 -29 -15z m54 -16 c7
-8 11 -20 10 -28 -4 -31 2 -40 21 -35 13 3 24 -3 35 -19 13 -20 13 -24 1 -24
-7 0 -27 -3 -43 -6 -28 -5 -33 -2 -61 45 l-31 50 22 16 c27 19 31 19 46 1z
m-71 -69 c12 -18 22 -38 22 -43 0 -11 -139 -38 -148 -29 -3 3 0 11 6 17 7 7
12 20 12 30 0 14 58 56 80 57 3 1 15 -14 28 -32z m-194 -78 c-6 -11 -24 -2
-24 11 0 5 7 7 15 4 8 -4 12 -10 9 -15z m-17 -101 c-3 -7 -5 -2 -5 12 0 14 2
19 5 13 2 -7 2 -19 0 -25z m-2524 -654 l5 -131 -49 15 c-46 15 -49 18 -49 51
0 33 81 225 86 205 1 -5 4 -68 7 -140z m-29 -182 c49 -27 50 -28 86 -132 44
-130 79 -195 149 -285 50 -63 52 -67 21 -44 -95 70 -141 101 -186 121 -27 11
-55 28 -62 37 -10 12 -15 13 -18 4 -3 -7 -15 -13 -26 -13 -37 0 -13 -22 42
-40 67 -20 108 -41 181 -90 31 -21 76 -48 100 -61 27 -14 38 -24 29 -26 -45
-13 -122 -50 -171 -83 l-55 -38 -26 41 c-36 58 -71 132 -93 195 -11 28 -24 52
-30 52 -20 0 -32 225 -19 338 4 28 12 52 18 52 6 0 33 -13 60 -28z m230 -217
c24 -84 60 -193 73 -217 7 -16 11 -28 9 -28 -9 0 -95 117 -129 176 -29 49 -87
191 -87 211 0 18 126 -117 134 -142z m150 -128 c-4 -11 -12 -52 -18 -91 l-12
-70 -42 126 c-23 69 -42 131 -42 137 0 7 27 -9 60 -34 50 -38 60 -51 54 -68z
m1656 -1001 c0 -6 -205 -86 -219 -86 -6 0 -11 4 -11 9 0 5 26 17 58 26 31 8
80 24 107 35 53 20 65 23 65 16z m-290 -96 c0 -13 -29 -18 -142 -24 -60 -3
-98 -2 -98 4 0 6 21 10 48 11 26 0 65 4 87 8 57 12 105 13 105 1z"/>
<path d="M1817 4274 c-13 -13 -7 -24 14 -24 11 0 19 5 17 12 -5 14 -22 21 -31
12z"/>
<path d="M3300 4246 c0 -18 17 -29 30 -21 8 5 7 11 -1 21 -15 18 -29 18 -29 0z"/>
<path d="M2466 4185 c4 -8 10 -15 15 -15 5 0 9 7 9 15 0 8 -7 15 -15 15 -9 0
-12 -6 -9 -15z"/>
<path d="M3065 4091 c-6 -11 9 -23 19 -14 9 9 7 23 -3 23 -6 0 -12 -4 -16 -9z"/>
<path d="M3212 4014 c2 -11 11 -20 22 -22 13 -3 17 1 14 14 -2 11 -11 20 -22
22 -13 3 -17 -1 -14 -14z"/>
<path d="M2346 3959 c-139 -19 -322 -75 -372 -114 -16 -13 -12 -13 21 1 179
74 319 98 535 91 238 -7 372 -45 579 -166 72 -42 109 -48 61 -10 -35 28 -187
104 -266 134 -152 57 -401 86 -558 64z"/>
<path d="M3431 3921 c-10 -17 -9 -21 3 -21 20 0 27 13 16 29 -6 11 -10 9 -19
-8z"/>
<path d="M1171 3851 c-9 -6 -10 -11 -2 -15 13 -8 31 1 31 15 0 11 -11 11 -29
0z"/>
<path d="M3926 3791 c-7 -11 18 -33 27 -24 4 3 7 12 7 20 0 15 -26 18 -34 4z"/>
<path d="M905 3780 c-3 -5 -1 -10 4 -10 6 0 11 5 11 10 0 6 -2 10 -4 10 -3 0
-8 -4 -11 -10z"/>
<path d="M4142 3768 c2 -6 10 -14 16 -16 7 -2 10 2 6 12 -7 18 -28 22 -22 4z"/>
<path d="M1345 3681 c-3 -5 -1 -12 5 -16 12 -7 30 2 30 16 0 12 -27 12 -35 0z"/>
<path d="M3385 3589 c74 -76 215 -153 238 -130 5 5 -11 15 -41 25 -49 17 -174
97 -201 130 -7 9 -18 16 -24 16 -6 0 7 -18 28 -41z"/>
<path d="M920 3565 c0 -8 7 -15 15 -15 8 0 15 7 15 15 0 8 -7 15 -15 15 -8 0
-15 -7 -15 -15z"/>
<path d="M1226 3571 c-4 -5 -2 -12 3 -15 5 -4 12 -2 15 3 4 5 2 12 -3 15 -5 4
-12 2 -15 -3z"/>
<path d="M4155 3500 c-7 -12 2 -30 16 -30 5 0 9 9 9 20 0 21 -15 27 -25 10z"/>
<path d="M2793 3443 c-15 -5 -82 -214 -117 -363 -32 -136 -72 -376 -87 -515
-7 -77 -18 -127 -36 -167 -26 -59 -25 -88 2 -88 12 0 15 -18 15 -107 0 -142
20 -359 35 -380 28 -38 32 -2 27 250 -3 183 -2 256 6 261 18 11 91 -27 148
-76 28 -23 96 -84 150 -133 142 -130 270 -225 302 -225 31 0 4 34 -83 104 -52
42 -158 134 -235 205 -132 122 -218 181 -262 181 -53 0 26 189 163 391 73 109
302 344 364 374 59 29 73 58 34 70 -26 8 -79 -26 -194 -125 -100 -85 -226
-237 -304 -366 l-53 -89 6 59 c11 96 63 349 111 541 37 145 43 181 33 191 -7
6 -19 10 -25 7z"/>
<path d="M4085 3439 c-10 -15 3 -25 16 -12 7 7 7 13 1 17 -6 3 -14 1 -17 -5z"/>
<path d="M1941 3046 c-21 -57 -55 -221 -66 -324 -6 -51 -13 -71 -38 -98 -58
-67 -122 -80 -149 -31 -6 12 -15 48 -19 81 -13 104 -32 100 -104 -26 -26 -44
-49 -78 -51 -75 -11 11 19 95 52 144 39 60 69 73 109 47 19 -12 29 -14 37 -6
15 15 -43 72 -74 72 -86 0 -200 -186 -179 -291 6 -29 11 -34 38 -37 34 -3 51
14 93 98 l23 45 17 -40 c39 -90 108 -112 185 -60 20 15 38 25 39 23 2 -2 7
-53 13 -113 13 -133 30 -175 73 -175 25 0 35 9 64 53 19 28 49 87 67 129 30
71 34 76 46 58 17 -25 55 -26 75 -2 8 9 28 41 44 69 16 29 32 53 35 53 4 0 10
-15 13 -33 11 -60 79 -103 136 -87 67 19 167 127 141 153 -8 8 -26 -3 -69 -45
-60 -59 -89 -74 -123 -63 -27 9 -49 62 -49 118 0 45 -19 75 -40 62 -5 -3 -31
-42 -56 -86 -54 -93 -65 -103 -53 -48 12 53 32 90 70 134 34 39 53 43 88 19
15 -11 26 -13 33 -6 15 15 -6 47 -41 62 -79 33 -130 -22 -240 -258 -78 -167
-130 -255 -145 -241 -16 15 -27 123 -21 209 8 127 40 331 66 433 35 135 35
137 6 137 -22 0 -29 -8 -46 -54z"/>
<path d="M3369 3016 c-13 -29 -5 -71 15 -79 21 -8 56 21 56 47 0 24 -28 56
-49 56 -6 0 -16 -11 -22 -24z"/>
<path d="M3854 3015 c-19 -29 -16 -54 9 -69 37 -23 71 29 47 73 -14 28 -36 26
-56 -4z"/>
<path d="M3806 2788 c-21 -32 -38 -152 -30 -207 3 -25 13 -62 21 -81 17 -41
12 -84 -23 -220 -67 -256 -248 -511 -466 -655 -57 -37 -71 -55 -45 -55 51 0
247 174 341 303 28 37 56 67 63 67 7 0 13 5 13 11 0 5 -4 8 -9 5 -4 -3 12 34
36 82 51 101 88 214 107 321 11 66 15 76 32 73 78 -13 110 3 201 99 69 72 106
130 93 143 -8 8 -36 -15 -98 -81 -89 -94 -115 -113 -152 -113 -45 0 -63 113
-38 247 10 54 9 66 -3 74 -21 13 -27 11 -43 -13z"/>
<path d="M4180 2240 c0 -5 7 -10 15 -10 8 0 15 5 15 10 0 6 -7 10 -15 10 -8 0
-15 -4 -15 -10z"/>
<path d="M710 2135 c0 -18 5 -25 20 -25 21 0 24 8 14 34 -10 25 -34 19 -34 -9z"/>
<path d="M4251 2107 c-18 -18 -13 -27 14 -27 15 0 25 6 25 14 0 19 -25 27 -39
13z"/>
<path d="M3880 2060 c-13 -8 -13 -10 2 -10 9 0 20 5 23 10 8 13 -5 13 -25 0z"/>
<path d="M3970 2030 c0 -5 5 -10 10 -10 6 0 10 5 10 10 0 6 -4 10 -10 10 -5 0
-10 -4 -10 -10z"/>
<path d="M1757 1872 c-29 -32 -57 -108 -68 -188 -6 -44 -12 -80 -13 -82 -2 -1
-29 32 -62 75 -32 42 -65 79 -73 81 -17 6 13 -39 84 -123 l51 -60 -100 0 c-86
0 -107 -3 -143 -23 -24 -12 -43 -27 -43 -32 0 -12 -6 -13 68 10 75 24 202 38
202 23 0 -6 -9 -22 -20 -36 -21 -26 -76 -140 -82 -167 -1 -8 1 -17 6 -20 5 -3
24 31 44 75 19 44 47 98 62 120 21 31 29 57 34 114 4 49 18 104 41 160 19 47
33 87 31 88 -2 2 -10 -5 -19 -15z"/>
<path d="M2052 1742 c-41 -65 -56 -137 -49 -240 3 -61 2 -81 -5 -68 -20 35
-66 172 -84 249 -21 90 -40 104 -29 21 10 -81 31 -148 76 -237 l39 -78 -32 6
c-86 19 -257 -8 -256 -40 0 -5 5 -9 11 -7 81 23 133 32 194 32 40 0 73 -3 73
-6 0 -3 -11 -20 -25 -36 -42 -50 -67 -108 -72 -170 -7 -66 11 -81 21 -18 10
66 44 144 81 187 l35 41 -6 78 c-8 97 7 178 45 261 36 75 25 92 -17 25z"/>
<path d="M3705 1770 c-7 -12 2 -30 16 -30 5 0 9 9 9 20 0 21 -15 27 -25 10z"/>
<path d="M3851 1731 c-16 -28 -14 -33 12 -29 14 2 22 10 22 22 0 27 -21 31
-34 7z"/>
<path d="M3764 1605 c-10 -25 7 -40 23 -20 7 11 13 22 13 27 0 14 -30 9 -36
-7z"/>
<path d="M2306 1577 c-8 -28 -2 -183 9 -242 6 -30 6 -30 -35 14 -28 31 -46 62
-57 102 -9 32 -20 56 -25 52 -21 -12 20 -133 56 -162 21 -17 20 -31 0 -31 -31
0 -79 -39 -133 -105 -29 -37 -50 -69 -46 -73 3 -4 39 28 78 70 83 89 106 102
154 93 l36 -6 -8 33 c-4 18 -10 89 -14 158 -5 92 -9 117 -15 97z"/>
<path d="M2616 1541 c-4 -5 5 -22 18 -38 54 -64 208 -121 298 -109 26 4 48 4
48 2 0 -3 -30 -15 -67 -26 -83 -26 -233 -29 -341 -8 -80 16 -105 7 -46 -18 56
-24 195 -29 289 -11 54 11 75 12 63 4 -120 -85 -198 -144 -198 -150 0 -5 -11
-23 -25 -41 -14 -18 -25 -41 -24 -52 0 -16 2 -16 17 6 51 76 171 183 287 256
l30 19 -33 -42 c-36 -46 -78 -133 -88 -181 -6 -30 -5 -32 17 -29 19 3 24 11
25 33 2 51 64 167 119 224 l36 37 -103 5 c-117 5 -184 29 -262 93 -46 38 -52
40 -60 26z"/>
<path d="M1760 1420 c0 -5 5 -10 11 -10 5 0 7 5 4 10 -3 6 -8 10 -11 10 -2 0
-4 -4 -4 -10z"/>
<path d="M1167 1368 c-8 -30 1 -40 24 -28 15 9 17 15 9 30 -14 26 -26 25 -33
-2z"/>
<path d="M2030 1320 c0 -5 5 -10 10 -10 6 0 10 5 10 10 0 6 -4 10 -10 10 -5 0
-10 -4 -10 -10z"/>
<path d="M3172 1279 c2 -6 8 -10 13 -10 5 0 11 4 13 10 2 6 -4 11 -13 11 -9 0
-15 -5 -13 -11z"/>
<path d="M1850 1251 c0 -12 6 -21 16 -21 9 0 14 7 12 17 -5 25 -28 28 -28 4z"/>
<path d="M3230 1205 c0 -9 5 -15 11 -13 6 2 11 8 11 13 0 5 -5 11 -11 13 -6 2
-11 -4 -11 -13z"/>
<path d="M1685 1180 c-8 -13 4 -32 16 -25 5 4 9 1 9 -6 0 -10 3 -10 11 -2 7 7
9 19 6 27 -7 18 -33 21 -42 6z"/>
<path d="M2165 1130 c-4 -6 -2 -17 4 -23 15 -15 25 -2 13 19 -7 12 -11 13 -17
4z"/>
<path d="M1820 1100 c0 -27 28 -37 48 -17 14 15 13 17 -12 27 -36 13 -36 13
-36 -10z"/>
<path d="M3122 1080 c-17 -28 -15 -32 11 -28 14 2 23 11 25 26 4 28 -19 29
-36 2z"/>
<path d="M2955 1037 c-21 -16 -13 -37 15 -37 19 0 34 25 24 41 -7 12 -17 11
-39 -4z"/>
<path d="M2152 1031 c2 -7 7 -12 11 -12 12 1 9 15 -3 20 -7 2 -11 -2 -8 -8z"/>
<path d="M1965 1020 c-6 -9 21 -40 34 -40 14 0 33 28 27 38 -7 12 -54 13 -61
2z"/>
<path d="M2806 983 c-10 -24 7 -35 30 -18 16 13 17 16 4 25 -21 14 -27 13 -34
-7z"/>
<path d="M1262 655 c-14 -26 20 -109 46 -113 20 -3 20 -2 -2 57 -26 71 -31 78
-44 56z"/>
<path d="M1372 663 c34 -74 65 -123 75 -123 20 0 16 25 -12 80 -18 36 -31 50
-46 50 -11 0 -19 -3 -17 -7z"/>
<path d="M1558 605 c-3 -60 -1 -65 18 -65 17 0 20 5 16 32 -4 26 -2 30 12 25
10 -4 16 -1 16 8 0 9 -6 12 -15 9 -11 -5 -15 1 -15 25 0 20 -5 31 -14 31 -11
0 -15 -17 -18 -65z"/>
<path d="M1610 666 c0 -2 7 -9 15 -16 12 -10 15 -10 15 4 0 9 -7 16 -15 16 -8
0 -15 -2 -15 -4z"/>
<path d="M1698 638 c10 -18 28 -48 38 -65 10 -18 26 -33 36 -33 17 0 17 2 -1
39 -11 21 -17 42 -13 46 4 5 2 5 -4 2 -6 -4 -16 5 -22 18 -7 15 -20 25 -33 25
l-21 0 20 -32z"/>
<path d="M1852 654 c-26 -18 -30 -74 -6 -98 25 -25 33 -19 22 18 -8 24 -7 43
0 65 13 36 13 36 -16 15z"/>
<path d="M1900 666 c0 -2 7 -9 15 -16 9 -7 15 -8 15 -2 0 5 -7 12 -15 16 -8 3
-15 4 -15 2z"/>
<path d="M1978 605 c-3 -60 -1 -65 18 -65 17 0 20 5 16 32 -4 26 -2 30 12 25
10 -4 16 -1 16 8 0 9 -6 12 -15 9 -11 -5 -15 1 -15 25 0 20 -5 31 -14 31 -11
0 -15 -17 -18 -65z"/>
<path d="M2030 666 c0 -2 7 -9 15 -16 12 -10 15 -10 15 4 0 9 -7 16 -15 16 -8
0 -15 -2 -15 -4z"/>
<path d="M2110 605 c0 -55 3 -65 18 -65 14 0 17 10 17 65 0 55 -3 65 -17 65
-15 0 -18 -10 -18 -65z"/>
<path d="M2230 605 c0 -58 2 -65 20 -65 18 0 20 7 20 65 0 58 -2 65 -20 65
-18 0 -20 -7 -20 -65z"/>
<path d="M2360 605 c0 -56 2 -65 18 -65 15 0 18 6 14 30 -4 31 6 38 26 18 9
-9 12 -7 12 9 0 17 -5 20 -21 16 -19 -5 -21 -3 -17 25 4 26 1 32 -14 32 -16 0
-18 -9 -18 -65z"/>
<path d="M2416 663 c5 -5 12 -12 16 -18 4 -6 8 -2 8 8 0 9 -7 17 -17 17 -9 0
-12 -3 -7 -7z"/>
<path d="M2492 663 c52 -111 88 -153 88 -104 0 33 -50 111 -72 111 -11 0 -18
-3 -16 -7z"/>
<path d="M2623 655 c-9 -24 1 -27 15 -5 8 13 8 20 2 20 -6 0 -13 -7 -17 -15z"/>
<path d="M2660 605 c0 -55 3 -65 18 -65 15 0 17 8 14 60 -4 61 7 77 27 43 9
-16 10 -16 11 5 0 19 -5 22 -35 22 l-35 0 0 -65z"/>
<path d="M2820 605 c0 -58 2 -65 20 -65 18 0 20 7 20 65 0 58 -2 65 -20 65
-18 0 -20 -7 -20 -65z"/>
<path d="M2875 630 c0 -44 5 -48 29 -24 21 21 20 41 -3 54 -27 14 -26 15 -26
-30z"/>
<path d="M2950 605 c0 -58 2 -65 20 -65 18 0 20 7 20 65 0 58 -2 65 -20 65
-18 0 -20 -7 -20 -65z"/>
<path d="M3117 656 c-3 -8 2 -37 11 -65 12 -38 21 -51 35 -51 11 0 17 5 15 13
-3 6 -13 36 -23 65 -19 53 -29 63 -38 38z"/>
<path d="M3216 654 c-10 -25 1 -29 14 -5 6 12 7 21 1 21 -5 0 -12 -7 -15 -16z"/>
<path d="M3250 605 c0 -58 2 -65 20 -65 18 0 20 7 20 60 0 55 11 78 23 48 3
-8 6 -6 6 5 1 13 -7 17 -34 17 l-35 0 0 -65z"/>
<path d="M3360 605 c0 -58 2 -65 20 -65 18 0 20 7 20 65 0 58 -2 65 -20 65
-18 0 -20 -7 -20 -65z"/>
<path d="M3419 661 c7 -5 17 -15 22 -22 6 -10 9 -8 9 9 0 16 -6 22 -22 22 -17
0 -19 -3 -9 -9z"/>
<path d="M3490 605 c0 -58 2 -65 20 -65 18 0 20 7 20 65 0 58 -2 65 -20 65
-18 0 -20 -7 -20 -65z"/>
<path d="M3547 633 c1 -21 2 -50 2 -65 1 -20 6 -28 20 -28 16 0 17 5 12 33 -4
18 -3 40 3 50 9 14 7 21 -8 33 -28 20 -31 18 -29 -23z"/>
<path d="M3650 650 c-24 -24 -26 -72 -4 -94 25 -26 29 -19 29 49 0 36 -1 65
-2 65 -2 0 -12 -9 -23 -20z"/>
<path d="M3705 605 c0 -68 4 -75 29 -49 22 21 20 77 -2 97 -10 10 -20 17 -23
17 -2 0 -4 -29 -4 -65z"/>
<path d="M3790 663 c0 -5 9 -33 19 -62 30 -91 61 -75 33 17 -12 37 -21 52 -34
52 -10 0 -18 -3 -18 -7z"/>
<path d="M3879 663 c0 -5 -2 -34 -2 -65 -2 -52 0 -58 18 -58 18 0 20 5 17 65
-3 48 -7 65 -18 65 -8 0 -14 -3 -15 -7z"/>
<path d="M3415 600 c3 -5 8 -10 11 -10 2 0 4 5 4 10 0 6 -5 10 -11 10 -5 0 -7
-4 -4 -10z"/>
<path d="M2178 559 c-17 -18 -17 -19 2 -19 13 0 20 7 20 20 0 24 0 24 -22 -1z"/>
<path d="M2428 559 c-17 -18 -17 -19 2 -19 13 0 20 7 20 20 0 24 0 24 -22 -1z"/>
<path d="M1626 555 c-19 -15 -19 -15 2 -15 13 0 22 6 22 15 0 18 0 18 -24 0z"/>
<path d="M1912 555 c-11 -12 -10 -15 3 -15 8 0 15 7 15 15 0 18 -2 18 -18 0z"/>
<path d="M2046 555 c-19 -15 -19 -15 2 -15 13 0 22 6 22 15 0 18 0 18 -24 0z"/>
<path d="M2296 555 c-19 -15 -19 -15 2 -15 13 0 22 6 22 15 0 18 0 18 -24 0z"/>
<path d="M3016 555 c-19 -15 -19 -15 2 -15 13 0 22 6 22 15 0 18 0 18 -24 0z"/>
</g>
</svg>
